<?xml version="1.0" standalone="no"?>
<!DOCTYPE svg PUBLIC "-//W3C//DTD SVG 20010904//EN"
 "http://www.w3.org/TR/2001/REC-SVG-20010904/DTD/svg10.dtd">
<svg version="1.0" xmlns="http://www.w3.org/2000/svg"
 width="200.000000pt" height="200.000000pt" viewBox="0 0 200.000000 200.000000"
 preserveAspectRatio="xMidYMid meet">

<g transform="translate(0.000000,200.000000) scale(0.100000,-0.100000)"
fill="#000000" stroke="none">
<path d="M827 1980 c-323 -58 -596 -269 -733 -566 -62 -134 -86 -248 -86 -409
0 -119 4 -155 26 -240 90 -347 342 -609 683 -711 119 -36 347 -45 474 -19 179
36 346 124 482 254 163 156 262 342 297 563 18 108 8 300 -20 403 -91 337
-349 601 -686 701 -75 22 -112 27 -239 30 -82 1 -172 -1 -198 -6z m551 -803
l-3 -463 -38 -76 c-56 -115 -142 -183 -282 -223 -83 -24 -267 -17 -345 14
-119 48 -204 136 -240 250 -15 48 -20 91 -20 182 l0 119 144 0 144 0 4 -103
c4 -115 15 -144 71 -177 45 -28 140 -27 185 0 58 36 62 57 62 375 l0 285 -90
0 -90 0 0 140 0 140 250 0 251 0 -3 -463z"/>
</g>
</svg>
